<svg width="74" height="74" xmlns="http://www.w3.org/2000/svg">
  <path fill="#fff" d="m10,0l54,0c5,0 10,5 10,10l0,54c0,5 -5,10 -10,10l-54,0c-5,0 -10,-5 -10,-10l0,-54c0,-5 5,-10 10,-10z"/>
  <path fill="none" stroke="#8956ff" stroke-width="10.5" stroke-linecap="round" d="m25.62549,38.97381c0.87397,0 4.37597,0.10662 5.24382,0c3.57629,-0.44048 6.83707,-2.17269 8.7397,-2.62191c1.70075,-0.40203 6.99176,-2.62191 7.86573,-3.49588c0.87397,-0.87397 3.55444,-1.49973 3.49588,-1.74794c0,0 2.52228,-6.16236 -2.62191,-9.61367c-1.45166,-0.97448 -4.83043,-3.87606 -8.06675,-5.11972c-3.23631,-1.24366 -6.79075,-0.1241 -7.66472,-0.1241c-0.87397,0 -2.87798,1.13004 -3.49588,1.74794c-0.6179,0.6179 -3.30885,4.57611 -3.7371,5.17041c-2.89546,4.02201 -3.06414,16.2506 -2.3807,20.17473c0.68344,3.92413 1.56528,6.22179 2.62191,7.86573c0.94651,1.47177 6.18421,4.90909 6.99176,5.24382c1.14141,0.47282 5.31287,1.68589 7.86573,1.74794c2.55287,0.06205 4.83393,-0.12585 6.99176,-0.87397c2.37982,-0.82503 6.11779,-4.36985 6.11779,-4.36985"/>
  <ellipse fill="#fff" stroke="#000" cx="18.63838" cy="33.2532" ry="6.6722" rx="6.6722"/>
  <ellipse fill="#000" stroke="#000" cx="18.80269" cy="33.74132" ry="3.88662" rx="3.88662" stroke-width="0"/>
  <ellipse fill="#fff" stroke="#000" cx="53.95811" cy="23.14371" ry="6.6722" rx="6.6722"/>
  <ellipse fill="#000" stroke="#000" cx="54.12243" cy="23.63183" ry="3.88662" rx="3.88662" stroke-width="0"/>
</svg>